<svg height="480pt" viewBox="0 0 480.00958 480" width="480pt" xmlns="http://www.w3.org/2000/svg"><path d="m8 64.003906h112c4.417969 0 8 3.582032 8 8v400c0 4.417969-3.582031 8-8 8h-112c-4.417969 0-8-3.582031-8-8v-400c0-4.417968 3.582031-8 8-8zm0 0" fill="#3498db"/><path d="m136 .00390625h104c4.417969 0 8 3.58203175 8 7.99999975v464c0 4.417969-3.582031 8-8 8h-104c-4.417969 0-8-3.582031-8-8v-464c0-4.417968 3.582031-7.99999975 8-7.99999975zm0 0" fill="#ffcc5c"/><path d="m474.078125 447.765625-120 32c-.679687.15625-1.378906.238281-2.078125.238281-1.410156 0-2.792969-.386718-4-1.117187-1.855469-1.0625-3.207031-2.820313-3.761719-4.882813l-96-368c-1.082031-4.257812 1.445313-8.597656 5.683594-9.757812l120-32c4.296875-1.058594 8.65625 1.492187 9.839844 5.757812l96 368c1.082031 4.257813-1.445313 8.601563-5.683594 9.761719zm0 0" fill="#b3b3b3"/><path d="m46.398438 152.003906h51.203124c3.53125 0 6.398438 2.867188 6.398438 6.402344v51.199219c0 3.535156-2.867188 6.398437-6.398438 6.398437h-51.203124c-3.53125 0-6.398438-2.863281-6.398438-6.398437v-51.199219c0-3.535156 2.867188-6.402344 6.398438-6.402344zm0 0" fill="#b3b3b3"/><path d="m240 .00390625h-104c-4.417969 0-8 3.58203175-8 7.99999975v56h-120c-4.417969 0-8 3.582032-8 8v400c0 4.417969 3.582031 8 8 8h232c4.417969 0 8-3.582031 8-8v-464c0-4.417968-3.582031-7.99999975-8-7.99999975zm-8 415.99999975h-88v-16h88zm-216-296h112v240h-112zm216-32h-88v-24h88zm-216 288h112v24h-112zm128 8v-280h88v280zm88-368v32h-88v-32zm-104 64v24h-112v-24zm-112 336h112v48h-112zm128 48v-32h88v32zm0 0"/><path d="m479.742188 437.988281-96-368c-.535157-2.0625-1.871094-3.824219-3.714844-4.894531-1.839844-1.074219-4.03125-1.367188-6.089844-.816406l-120 32c-4.25 1.132812-6.789062 5.484375-5.679688 9.742187l96 368c.535157 2.0625 1.875 3.824219 3.71875 4.898438 1.839844 1.066406 4.03125 1.351562 6.085938.796875l120-32c4.242188-1.132813 6.777344-5.472656 5.679688-9.726563zm-201.246094-279.441406 104.542968-27.871094 3.761719 14.402344-104.535156 27.910156zm112.34375 2.050781 46.398437 177.984375-104.503906 27.878907-46.398437-177.992188zm50.472656 193.472656 8.191406 31.390626-104.542968 27.871093-8.160157-31.382812zm-71.023438-272.265624 8.710938 33.398437-104.542969 27.867187-8.703125-33.386718zm-12.578124 380.398437-8.710938-33.398437 104.542969-27.878907 8.703125 33.382813zm0 0"/><path d="m104 144.003906h-64c-4.417969 0-8 3.582032-8 8v64c0 4.417969 3.582031 8 8 8h64c4.417969 0 8-3.582031 8-8v-64c0-4.417968-3.582031-8-8-8zm-8 64h-48v-48h48zm0 0"/></svg>